<?xml version="1.0" encoding="UTF-8" standalone="no"?>
<!DOCTYPE svg PUBLIC "-//W3C//DTD SVG 1.1//EN"
 "http://www.w3.org/Graphics/SVG/1.1/DTD/svg11.dtd">
<!-- Generated by graphviz version 2.40.1 (20161225.0304)
 -->
<!-- Title: controllers_diagram Pages: 1 -->
<svg width="417pt" height="432pt"
 viewBox="0.00 0.00 417.00 432.00" xmlns="http://www.w3.org/2000/svg" xmlns:xlink="http://www.w3.org/1999/xlink">
<g id="graph0" class="graph" transform="scale(1 1) rotate(0) translate(4 428)">
<title>controllers_diagram</title>
<polygon fill="transparent" stroke="transparent" points="-4,4 -4,-428 413,-428 413,4 -4,4"/>
<!-- _diagram_info -->
<g id="node1" class="node">
<title>_diagram_info</title>
<text text-anchor="start" x="68" y="-198.6" font-family="Times,serif" font-size="13.00" fill="#000000">Controllers diagram</text>
<text text-anchor="start" x="68" y="-184.6" font-family="Times,serif" font-size="13.00" fill="#000000">Date: Dec 15 2018 &#45; 12:45</text>
<text text-anchor="start" x="68" y="-170.6" font-family="Times,serif" font-size="13.00" fill="#000000">Migration version: 20181215100537</text>
<text text-anchor="start" x="68" y="-156.6" font-family="Times,serif" font-size="13.00" fill="#000000">Generated by RailRoady 1.5.3</text>
<text text-anchor="start" x="68" y="-142.6" font-family="Times,serif" font-size="13.00" fill="#000000">http://railroady.prestonlee.com</text>
</g>
<!-- ApplicationController -->
<g id="node2" class="node">
<title>ApplicationController</title>
<path fill="none" stroke="#000000" d="M87,-285.5C87,-285.5 199,-285.5 199,-285.5 205,-285.5 211,-291.5 211,-297.5 211,-297.5 211,-367.5 211,-367.5 211,-373.5 205,-379.5 199,-379.5 199,-379.5 87,-379.5 87,-379.5 81,-379.5 75,-373.5 75,-367.5 75,-367.5 75,-297.5 75,-297.5 75,-291.5 81,-285.5 87,-285.5"/>
<text text-anchor="middle" x="143" y="-364.3" font-family="Times,serif" font-size="14.00" fill="#000000">ApplicationController</text>
<polyline fill="none" stroke="#000000" points="75,-356.5 211,-356.5 "/>
<polyline fill="none" stroke="#000000" points="75,-332.5 211,-332.5 "/>
<polyline fill="none" stroke="#000000" points="75,-308.5 211,-308.5 "/>
<text text-anchor="start" x="83" y="-293.3" font-family="Times,serif" font-size="14.00" fill="#000000">_layout</text>
</g>
<!-- PhonesController -->
<g id="node3" class="node">
<title>PhonesController</title>
<path fill="none" stroke="#000000" d="M252,-240.5C252,-240.5 339,-240.5 339,-240.5 345,-240.5 351,-246.5 351,-252.5 351,-252.5 351,-411.5 351,-411.5 351,-417.5 345,-423.5 339,-423.5 339,-423.5 252,-423.5 252,-423.5 246,-423.5 240,-417.5 240,-411.5 240,-411.5 240,-252.5 240,-252.5 240,-246.5 246,-240.5 252,-240.5"/>
<text text-anchor="middle" x="295.5" y="-408.3" font-family="Times,serif" font-size="14.00" fill="#000000">PhonesController</text>
<polyline fill="none" stroke="#000000" points="240,-400.5 351,-400.5 "/>
<text text-anchor="start" x="248" y="-385.3" font-family="Times,serif" font-size="14.00" fill="#000000">create</text>
<text text-anchor="start" x="248" y="-370.3" font-family="Times,serif" font-size="14.00" fill="#000000">destroy</text>
<text text-anchor="start" x="248" y="-355.3" font-family="Times,serif" font-size="14.00" fill="#000000">edit</text>
<text text-anchor="start" x="248" y="-340.3" font-family="Times,serif" font-size="14.00" fill="#000000">new</text>
<text text-anchor="start" x="248" y="-325.3" font-family="Times,serif" font-size="14.00" fill="#000000">show</text>
<text text-anchor="start" x="248" y="-310.3" font-family="Times,serif" font-size="14.00" fill="#000000">update</text>
<polyline fill="none" stroke="#000000" points="240,-302.5 351,-302.5 "/>
<polyline fill="none" stroke="#000000" points="240,-278.5 351,-278.5 "/>
<text text-anchor="start" x="248" y="-263.3" font-family="Times,serif" font-size="14.00" fill="#000000">_layout</text>
<text text-anchor="start" x="248" y="-248.3" font-family="Times,serif" font-size="14.00" fill="#000000">phone_params</text>
</g>
<!-- OrdersController -->
<g id="node4" class="node">
<title>OrdersController</title>
<path fill="none" stroke="#000000" d="M312,-60.5C312,-60.5 397,-60.5 397,-60.5 403,-60.5 409,-66.5 409,-72.5 409,-72.5 409,-142.5 409,-142.5 409,-148.5 403,-154.5 397,-154.5 397,-154.5 312,-154.5 312,-154.5 306,-154.5 300,-148.5 300,-142.5 300,-142.5 300,-72.5 300,-72.5 300,-66.5 306,-60.5 312,-60.5"/>
<text text-anchor="middle" x="354.5" y="-139.3" font-family="Times,serif" font-size="14.00" fill="#000000">OrdersController</text>
<polyline fill="none" stroke="#000000" points="300,-131.5 409,-131.5 "/>
<polyline fill="none" stroke="#000000" points="300,-107.5 409,-107.5 "/>
<polyline fill="none" stroke="#000000" points="300,-83.5 409,-83.5 "/>
<text text-anchor="start" x="308" y="-68.3" font-family="Times,serif" font-size="14.00" fill="#000000">_layout</text>
</g>
<!-- PagesController -->
<g id="node5" class="node">
<title>PagesController</title>
<path fill="none" stroke="#000000" d="M12,-.5C12,-.5 92,-.5 92,-.5 98,-.5 104,-6.5 104,-12.5 104,-12.5 104,-96.5 104,-96.5 104,-102.5 98,-108.5 92,-108.5 92,-108.5 12,-108.5 12,-108.5 6,-108.5 0,-102.5 0,-96.5 0,-96.5 0,-12.5 0,-12.5 0,-6.5 6,-.5 12,-.5"/>
<text text-anchor="middle" x="52" y="-93.3" font-family="Times,serif" font-size="14.00" fill="#000000">PagesController</text>
<polyline fill="none" stroke="#000000" points="0,-85.5 104,-85.5 "/>
<text text-anchor="start" x="8" y="-70.3" font-family="Times,serif" font-size="14.00" fill="#000000">adminphones</text>
<text text-anchor="start" x="8" y="-55.3" font-family="Times,serif" font-size="14.00" fill="#000000">index</text>
<polyline fill="none" stroke="#000000" points="0,-47.5 104,-47.5 "/>
<polyline fill="none" stroke="#000000" points="0,-23.5 104,-23.5 "/>
<text text-anchor="start" x="8" y="-8.3" font-family="Times,serif" font-size="14.00" fill="#000000">_layout</text>
</g>
</g>
</svg>
