<?xml version="1.0" encoding="UTF-8" standalone="no"?>
<!DOCTYPE svg PUBLIC "-//W3C//DTD SVG 1.1//EN"
 "http://www.w3.org/Graphics/SVG/1.1/DTD/svg11.dtd">
<!-- Generated by graphviz version 2.40.1 (20161225.0304)
 -->
<!-- Title: models_diagram Pages: 1 -->
<svg width="830pt" height="911pt"
 viewBox="0.00 0.00 830.34 911.00" xmlns="http://www.w3.org/2000/svg" xmlns:xlink="http://www.w3.org/1999/xlink">
<g id="graph0" class="graph" transform="scale(1 1) rotate(0) translate(4 907)">
<title>models_diagram</title>
<polygon fill="transparent" stroke="transparent" points="-4,4 -4,-907 826.3431,-907 826.3431,4 -4,4"/>
<!-- _diagram_info -->
<g id="node1" class="node">
<title>_diagram_info</title>
<text text-anchor="start" x="8" y="-851.6" font-family="Times,serif" font-size="13.00" fill="#000000">Models diagram</text>
<text text-anchor="start" x="8" y="-837.6" font-family="Times,serif" font-size="13.00" fill="#000000">Date: Dec 15 2018 &#45; 12:45</text>
<text text-anchor="start" x="8" y="-823.6" font-family="Times,serif" font-size="13.00" fill="#000000">Migration version: 20181215100537</text>
<text text-anchor="start" x="8" y="-809.6" font-family="Times,serif" font-size="13.00" fill="#000000">Generated by RailRoady 1.5.3</text>
<text text-anchor="start" x="8" y="-795.6" font-family="Times,serif" font-size="13.00" fill="#000000">http://railroady.prestonlee.com</text>
</g>
<!-- Phone -->
<g id="node2" class="node">
<title>Phone</title>
<path fill="none" stroke="#000000" d="M265,-188.5C265,-188.5 399,-188.5 399,-188.5 405,-188.5 411,-194.5 411,-200.5 411,-200.5 411,-702.5 411,-702.5 411,-708.5 405,-714.5 399,-714.5 399,-714.5 265,-714.5 265,-714.5 259,-714.5 253,-708.5 253,-702.5 253,-702.5 253,-200.5 253,-200.5 253,-194.5 259,-188.5 265,-188.5"/>
<text text-anchor="middle" x="332" y="-699.3" font-family="Times,serif" font-size="14.00" fill="#000000">Phone</text>
<polyline fill="none" stroke="#000000" points="253,-691.5 411,-691.5 "/>
<text text-anchor="start" x="261" y="-676.3" font-family="Times,serif" font-size="14.00" fill="#000000">id :INTEGER</text>
<text text-anchor="start" x="261" y="-661.3" font-family="Times,serif" font-size="14.00" fill="#000000">admin_id :integer</text>
<text text-anchor="start" x="261" y="-646.3" font-family="Times,serif" font-size="14.00" fill="#000000">brand :varchar</text>
<text text-anchor="start" x="261" y="-631.3" font-family="Times,serif" font-size="14.00" fill="#000000">model :varchar</text>
<text text-anchor="start" x="261" y="-616.3" font-family="Times,serif" font-size="14.00" fill="#000000">price :integer</text>
<text text-anchor="start" x="261" y="-601.3" font-family="Times,serif" font-size="14.00" fill="#000000">materials :varchar</text>
<text text-anchor="start" x="261" y="-586.3" font-family="Times,serif" font-size="14.00" fill="#000000">color :varchar</text>
<text text-anchor="start" x="261" y="-571.3" font-family="Times,serif" font-size="14.00" fill="#000000">os :varchar</text>
<text text-anchor="start" x="261" y="-556.3" font-family="Times,serif" font-size="14.00" fill="#000000">displaysize :float</text>
<text text-anchor="start" x="261" y="-541.3" font-family="Times,serif" font-size="14.00" fill="#000000">displaytype :varchar</text>
<text text-anchor="start" x="261" y="-526.3" font-family="Times,serif" font-size="14.00" fill="#000000">displayresolution :varchar</text>
<text text-anchor="start" x="261" y="-511.3" font-family="Times,serif" font-size="14.00" fill="#000000">soc :varchar</text>
<text text-anchor="start" x="261" y="-496.3" font-family="Times,serif" font-size="14.00" fill="#000000">frequency :varchar</text>
<text text-anchor="start" x="261" y="-481.3" font-family="Times,serif" font-size="14.00" fill="#000000">gpu :varchar</text>
<text text-anchor="start" x="261" y="-466.3" font-family="Times,serif" font-size="14.00" fill="#000000">rom :integer</text>
<text text-anchor="start" x="261" y="-451.3" font-family="Times,serif" font-size="14.00" fill="#000000">ram :integer</text>
<text text-anchor="start" x="261" y="-436.3" font-family="Times,serif" font-size="14.00" fill="#000000">sims :integer</text>
<text text-anchor="start" x="261" y="-421.3" font-family="Times,serif" font-size="14.00" fill="#000000">maincam :varchar</text>
<text text-anchor="start" x="261" y="-406.3" font-family="Times,serif" font-size="14.00" fill="#000000">frontcam :varchar</text>
<text text-anchor="start" x="261" y="-391.3" font-family="Times,serif" font-size="14.00" fill="#000000">videoresolution :varchar</text>
<text text-anchor="start" x="261" y="-376.3" font-family="Times,serif" font-size="14.00" fill="#000000">focus :varchar</text>
<text text-anchor="start" x="261" y="-361.3" font-family="Times,serif" font-size="14.00" fill="#000000">moreaboutcam :text</text>
<text text-anchor="start" x="261" y="-346.3" font-family="Times,serif" font-size="14.00" fill="#000000">battery :integer</text>
<text text-anchor="start" x="261" y="-331.3" font-family="Times,serif" font-size="14.00" fill="#000000">fastcharge :varchar</text>
<text text-anchor="start" x="261" y="-316.3" font-family="Times,serif" font-size="14.00" fill="#000000">wireless :text</text>
<text text-anchor="start" x="261" y="-301.3" font-family="Times,serif" font-size="14.00" fill="#000000">year :integer</text>
<text text-anchor="start" x="261" y="-286.3" font-family="Times,serif" font-size="14.00" fill="#000000">interfaces :varchar</text>
<text text-anchor="start" x="261" y="-271.3" font-family="Times,serif" font-size="14.00" fill="#000000">dimensions :varchar</text>
<text text-anchor="start" x="261" y="-256.3" font-family="Times,serif" font-size="14.00" fill="#000000">mass :integer</text>
<text text-anchor="start" x="261" y="-241.3" font-family="Times,serif" font-size="14.00" fill="#000000">more :text</text>
<text text-anchor="start" x="261" y="-226.3" font-family="Times,serif" font-size="14.00" fill="#000000">description :text</text>
<text text-anchor="start" x="261" y="-211.3" font-family="Times,serif" font-size="14.00" fill="#000000">created_at :datetime</text>
<text text-anchor="start" x="261" y="-196.3" font-family="Times,serif" font-size="14.00" fill="#000000">updated_at :datetime</text>
</g>
<!-- Ordernoreg -->
<g id="node4" class="node">
<title>Ordernoreg</title>
<path fill="none" stroke="#000000" d="M278.5,-.5C278.5,-.5 385.5,-.5 385.5,-.5 391.5,-.5 397.5,-6.5 397.5,-12.5 397.5,-12.5 397.5,-139.5 397.5,-139.5 397.5,-145.5 391.5,-151.5 385.5,-151.5 385.5,-151.5 278.5,-151.5 278.5,-151.5 272.5,-151.5 266.5,-145.5 266.5,-139.5 266.5,-139.5 266.5,-12.5 266.5,-12.5 266.5,-6.5 272.5,-.5 278.5,-.5"/>
<text text-anchor="middle" x="332" y="-136.3" font-family="Times,serif" font-size="14.00" fill="#000000">Ordernoreg</text>
<polyline fill="none" stroke="#000000" points="266.5,-128.5 397.5,-128.5 "/>
<text text-anchor="start" x="274.5" y="-113.3" font-family="Times,serif" font-size="14.00" fill="#000000">id :INTEGER</text>
<text text-anchor="start" x="274.5" y="-98.3" font-family="Times,serif" font-size="14.00" fill="#000000">phone_id :integer</text>
<text text-anchor="start" x="274.5" y="-83.3" font-family="Times,serif" font-size="14.00" fill="#000000">count :integer</text>
<text text-anchor="start" x="274.5" y="-68.3" font-family="Times,serif" font-size="14.00" fill="#000000">mobnumber :integer</text>
<text text-anchor="start" x="274.5" y="-53.3" font-family="Times,serif" font-size="14.00" fill="#000000">email :varchar</text>
<text text-anchor="start" x="274.5" y="-38.3" font-family="Times,serif" font-size="14.00" fill="#000000">adress :varchar</text>
<text text-anchor="start" x="274.5" y="-23.3" font-family="Times,serif" font-size="14.00" fill="#000000">created_at :datetime</text>
<text text-anchor="start" x="274.5" y="-8.3" font-family="Times,serif" font-size="14.00" fill="#000000">updated_at :datetime</text>
</g>
<!-- Phone&#45;&gt;Ordernoreg -->
<g id="edge1" class="edge">
<title>Phone&#45;&gt;Ordernoreg</title>
<path fill="none" stroke="#c40b0a" d="M332,-180.3131C332,-174.0684 332,-167.9783 332,-162.0799"/>
<ellipse fill="none" stroke="#c40b0a" cx="332" cy="-184.408" rx="4" ry="4"/>
<polygon fill="#c40b0a" stroke="#c40b0a" points="332.0001,-161.6778 336.5,-151.6778 332,-156.6778 332,-151.6778 332,-151.6778 332,-151.6778 332,-156.6778 327.5,-151.6779 332.0001,-161.6778 332.0001,-161.6778"/>
</g>
<!-- User -->
<g id="node3" class="node">
<title>User</title>
<path fill="none" stroke="#000000" d="M462,-751.5C462,-751.5 638,-751.5 638,-751.5 644,-751.5 650,-757.5 650,-763.5 650,-763.5 650,-890.5 650,-890.5 650,-896.5 644,-902.5 638,-902.5 638,-902.5 462,-902.5 462,-902.5 456,-902.5 450,-896.5 450,-890.5 450,-890.5 450,-763.5 450,-763.5 450,-757.5 456,-751.5 462,-751.5"/>
<text text-anchor="middle" x="550" y="-887.3" font-family="Times,serif" font-size="14.00" fill="#000000">User</text>
<polyline fill="none" stroke="#000000" points="450,-879.5 650,-879.5 "/>
<text text-anchor="start" x="458" y="-864.3" font-family="Times,serif" font-size="14.00" fill="#000000">id :INTEGER</text>
<text text-anchor="start" x="458" y="-849.3" font-family="Times,serif" font-size="14.00" fill="#000000">email :varchar</text>
<text text-anchor="start" x="458" y="-834.3" font-family="Times,serif" font-size="14.00" fill="#000000">encrypted_password :varchar</text>
<text text-anchor="start" x="458" y="-819.3" font-family="Times,serif" font-size="14.00" fill="#000000">reset_password_token :varchar</text>
<text text-anchor="start" x="458" y="-804.3" font-family="Times,serif" font-size="14.00" fill="#000000">reset_password_sent_at :datetime</text>
<text text-anchor="start" x="458" y="-789.3" font-family="Times,serif" font-size="14.00" fill="#000000">remember_created_at :datetime</text>
<text text-anchor="start" x="458" y="-774.3" font-family="Times,serif" font-size="14.00" fill="#000000">created_at :datetime</text>
<text text-anchor="start" x="458" y="-759.3" font-family="Times,serif" font-size="14.00" fill="#000000">updated_at :datetime</text>
</g>
<!-- Admin -->
<g id="node5" class="node">
<title>Admin</title>
<path fill="none" stroke="#000000" d="M244,-751.5C244,-751.5 420,-751.5 420,-751.5 426,-751.5 432,-757.5 432,-763.5 432,-763.5 432,-890.5 432,-890.5 432,-896.5 426,-902.5 420,-902.5 420,-902.5 244,-902.5 244,-902.5 238,-902.5 232,-896.5 232,-890.5 232,-890.5 232,-763.5 232,-763.5 232,-757.5 238,-751.5 244,-751.5"/>
<text text-anchor="middle" x="332" y="-887.3" font-family="Times,serif" font-size="14.00" fill="#000000">Admin</text>
<polyline fill="none" stroke="#000000" points="232,-879.5 432,-879.5 "/>
<text text-anchor="start" x="240" y="-864.3" font-family="Times,serif" font-size="14.00" fill="#000000">id :INTEGER</text>
<text text-anchor="start" x="240" y="-849.3" font-family="Times,serif" font-size="14.00" fill="#000000">email :varchar</text>
<text text-anchor="start" x="240" y="-834.3" font-family="Times,serif" font-size="14.00" fill="#000000">encrypted_password :varchar</text>
<text text-anchor="start" x="240" y="-819.3" font-family="Times,serif" font-size="14.00" fill="#000000">reset_password_token :varchar</text>
<text text-anchor="start" x="240" y="-804.3" font-family="Times,serif" font-size="14.00" fill="#000000">reset_password_sent_at :datetime</text>
<text text-anchor="start" x="240" y="-789.3" font-family="Times,serif" font-size="14.00" fill="#000000">remember_created_at :datetime</text>
<text text-anchor="start" x="240" y="-774.3" font-family="Times,serif" font-size="14.00" fill="#000000">created_at :datetime</text>
<text text-anchor="start" x="240" y="-759.3" font-family="Times,serif" font-size="14.00" fill="#000000">updated_at :datetime</text>
</g>
<!-- Admin&#45;&gt;Phone -->
<g id="edge2" class="edge">
<title>Admin&#45;&gt;Phone</title>
<path fill="none" stroke="#d15ce4" d="M332,-743.2663C332,-737.3105 332,-731.1507 332,-724.8261"/>
<ellipse fill="none" stroke="#d15ce4" cx="332" cy="-747.4637" rx="4" ry="4"/>
<polygon fill="#d15ce4" stroke="#d15ce4" points="332.0001,-724.7574 336.5,-714.7573 332,-719.7574 332,-714.7574 332,-714.7574 332,-714.7574 332,-719.7574 327.5,-714.7574 332.0001,-724.7574 332.0001,-724.7574"/>
</g>
<!-- ApplicationRecord -->
<g id="node6" class="node">
<title>ApplicationRecord</title>
<ellipse fill="none" stroke="#000000" cx="745" cy="-827" rx="77.1866" ry="18"/>
<text text-anchor="middle" x="745" y="-823.3" font-family="Times,serif" font-size="14.00" fill="#000000">ApplicationRecord</text>
</g>
</g>
</svg>
