<?xml version="1.0" encoding="UTF-8" standalone="no"?>
<!DOCTYPE svg PUBLIC "-//W3C//DTD SVG 1.1//EN"
 "http://www.w3.org/Graphics/SVG/1.1/DTD/svg11.dtd">
<!-- Generated by graphviz version 2.40.1 (20161225.0304)
 -->
<!-- Title: models_diagram Pages: 1 -->
<svg width="557pt" height="230pt"
 viewBox="0.00 0.00 557.34 230.00" xmlns="http://www.w3.org/2000/svg" xmlns:xlink="http://www.w3.org/1999/xlink">
<g id="graph0" class="graph" transform="scale(1 1) rotate(0) translate(4 226)">
<title>models_diagram</title>
<polygon fill="transparent" stroke="transparent" points="-4,4 -4,-226 553.3431,-226 553.3431,4 -4,4"/>
<!-- _diagram_info -->
<g id="node1" class="node">
<title>_diagram_info</title>
<text text-anchor="start" x="8" y="-207.6" font-family="Times,serif" font-size="13.00" fill="#000000">Models diagram</text>
<text text-anchor="start" x="8" y="-193.6" font-family="Times,serif" font-size="13.00" fill="#000000">Date: Dec 15 2018 &#45; 12:45</text>
<text text-anchor="start" x="8" y="-179.6" font-family="Times,serif" font-size="13.00" fill="#000000">Migration version: 20181215100537</text>
<text text-anchor="start" x="8" y="-165.6" font-family="Times,serif" font-size="13.00" fill="#000000">Generated by RailRoady 1.5.3</text>
<text text-anchor="start" x="8" y="-151.6" font-family="Times,serif" font-size="13.00" fill="#000000">http://railroady.prestonlee.com</text>
</g>
<!-- Phone -->
<g id="node2" class="node">
<title>Phone</title>
<ellipse fill="none" stroke="#000000" cx="268" cy="-90" rx="32.4942" ry="18"/>
<text text-anchor="middle" x="268" y="-86.3" font-family="Times,serif" font-size="14.00" fill="#000000">Phone</text>
</g>
<!-- Ordernoreg -->
<g id="node4" class="node">
<title>Ordernoreg</title>
<ellipse fill="none" stroke="#000000" cx="268" cy="-18" rx="51.1914" ry="18"/>
<text text-anchor="middle" x="268" y="-14.3" font-family="Times,serif" font-size="14.00" fill="#000000">Ordernoreg</text>
</g>
<!-- Phone&#45;&gt;Ordernoreg -->
<g id="edge1" class="edge">
<title>Phone&#45;&gt;Ordernoreg</title>
<path fill="none" stroke="#8f13cd" d="M268,-63.8144C268,-58.2775 268,-52.4053 268,-46.7785"/>
<ellipse fill="none" stroke="#8f13cd" cx="268" cy="-67.8314" rx="4" ry="4"/>
<polygon fill="#8f13cd" stroke="#8f13cd" points="268.0001,-46.4133 272.5,-36.4132 268,-41.4133 268,-36.4133 268,-36.4133 268,-36.4133 268,-41.4133 263.5,-36.4133 268.0001,-46.4133 268.0001,-46.4133"/>
</g>
<!-- User -->
<g id="node3" class="node">
<title>User</title>
<ellipse fill="none" stroke="#000000" cx="349" cy="-183" rx="27.0966" ry="18"/>
<text text-anchor="middle" x="349" y="-179.3" font-family="Times,serif" font-size="14.00" fill="#000000">User</text>
</g>
<!-- Admin -->
<g id="node5" class="node">
<title>Admin</title>
<ellipse fill="none" stroke="#000000" cx="268" cy="-183" rx="35.9954" ry="18"/>
<text text-anchor="middle" x="268" y="-179.3" font-family="Times,serif" font-size="14.00" fill="#000000">Admin</text>
</g>
<!-- Admin&#45;&gt;Phone -->
<g id="edge2" class="edge">
<title>Admin&#45;&gt;Phone</title>
<path fill="none" stroke="#a653dc" d="M268,-156.4432C268,-144.4479 268,-130.268 268,-118.0949"/>
<ellipse fill="none" stroke="#a653dc" cx="268" cy="-160.6262" rx="4" ry="4"/>
<polygon fill="#a653dc" stroke="#a653dc" points="268.0001,-118.0192 272.5,-108.0191 268,-113.0192 268,-108.0192 268,-108.0192 268,-108.0192 268,-113.0192 263.5,-108.0192 268.0001,-118.0192 268.0001,-118.0192"/>
</g>
<!-- ApplicationRecord -->
<g id="node6" class="node">
<title>ApplicationRecord</title>
<ellipse fill="none" stroke="#000000" cx="472" cy="-183" rx="77.1866" ry="18"/>
<text text-anchor="middle" x="472" y="-179.3" font-family="Times,serif" font-size="14.00" fill="#000000">ApplicationRecord</text>
</g>
</g>
</svg>
